<svg width="1184" height="769" viewBox="0 0 1184 769" fill="none" xmlns="http://www.w3.org/2000/svg">
<path d="M514.381 187.563C586.529 188.741 582.991 68.9212 651.855 28.0897C844.634 -86.2139 944.369 187.563 1125.08 358.453C1305.79 529.343 1009.56 618.103 969.702 690.657C937.816 748.701 846.076 766.404 804.192 768C759.268 766.404 656.719 752.9 605.918 711.65C542.416 660.089 261.387 648.671 231.663 661.562C207.884 671.874 139.113 665.859 107.699 661.562C-75.5097 551.956 13.1226 363.241 107.699 321.255C120.985 317.572 159.987 285.677 209.708 187.563C271.858 64.9195 424.195 186.089 514.381 187.563Z" fill="black" stroke="black"/>
</svg>
