<svg width="1521" height="988" viewBox="0 0 1521 988" fill="none" xmlns="http://www.w3.org/2000/svg">
<path d="M660.751 240.832C753.47 242.347 748.922 88.3147 837.42 35.8246C1085.16 -111.116 1213.33 240.832 1445.56 460.516C1677.8 680.2 1297.11 794.303 1245.89 887.574C1204.91 962.191 1087.02 984.948 1033.19 987C975.458 984.948 843.671 967.588 778.386 914.561C696.779 848.277 335.626 833.6 297.428 850.171C266.868 863.428 178.49 855.694 138.121 850.171C-97.3234 709.27 16.5789 466.671 138.121 412.696C155.194 407.962 205.316 366.96 269.212 240.832C349.083 83.1703 544.852 238.938 660.751 240.832Z" fill="black" stroke="black"/>
</svg>
